<?xml version="1.0" standalone="no"?> <!DOCTYPE svg PUBLIC "-//W3C//DTD SVG 1.0//EN" "http://www.w3.org/TR/2001/REC-SVG-20010904/DTD/svg10.dtd" > <svg xmlns="http://www.w3.org/2000/svg" width="100%" height="100%">
<defs >
<font id="dinnroundedregular" horiz-adv-x="886" ><font-face
    font-family="DIN Next Rounded LT Pro"
    units-per-em="2048"
    panose-1="2 15 5 3 2 2 3 5 2 3"
    ascent="1536"
    descent="-512"
    alphabetic="0" />
<missing-glyph horiz-adv-x="976" d="M0 51V1341Q0 1393 51 1393H926Q950 1393 963 1380T977 1341V51Q977 0 926 0H51Q0 0 0 51ZM100 109Q100 96 113 96H864Q877 96 877 109V1284Q877 1296 864 1296H113Q100 1296 100 1284V109ZM491 463T465 463T423 479T406 524V549Q406
591 416 620T451 680L530 778Q569 828 582 856T596 922Q596 975 561 1009T471 1044Q419 1044 389 1020T338 940Q318 899 285 899Q260 899 245 915T229 956Q229 969 233 985Q254 1058 317 1104T475 1151Q583 1151 650 1086T717 924Q717 870 700 830T643 741L559
639Q537 613 531 595T524 543V524Q524 496 508 480ZM387 269T387 301T410 355T465 377Q496 377 518 355T541 301T519 246T465 223Q433 223 410 246Z" />
<glyph unicode=" " glyph-name="space" horiz-adv-x="495" />
<glyph unicode="!" glyph-name="exclam" horiz-adv-x="577" d="M328 373T289 373T227 397T203 463V1311Q203 1353 226 1378T289 1403T351 1378T375 1311V463Q375 421 352 397ZM172 106Q172 154 206 188T289 223Q336 223 371 189T406 106Q406 59 371 25T289 -10Q241
-10 207 24T172 106Z" />
<glyph unicode="&quot;" glyph-name="quotedbl" horiz-adv-x="673" d="M471 1020Q441 1020 424 1039T406 1092V1331Q406 1364 423 1383T471 1403Q502 1403 519 1384T537 1331V1092Q537 1058 520 1039T471 1020ZM203 1020Q173 1020 155 1039T137 1092V1331Q137
1364 155 1383T203 1403Q234 1403 251 1384T268 1331V1092Q268 1058 251 1039T203 1020Z" />
<glyph unicode="#" glyph-name="numbersign" horiz-adv-x="1077" d="M168 72L217 440H98Q65 440 46 457T27 504Q27 533 45 550T98 567H236L274 854H150Q116 854 97 871T78 918Q78 947 97 964T150 981H291L340 1339Q343 1369 361 1386T408 1403Q442 1403 459 1381T473
1321L426 981H696L745 1339Q750 1369 768 1386T813 1403Q847 1403 865 1381T879 1321L831 981H961Q994 981 1013 964T1032 918Q1032 888 1013 871T961 854H815L776 567H909Q943 567 962 550T981 504T962 458T909 440H758L707 53Q699 -10 639 -10Q605 -10 587 12T573
72L623 440H352L301 53Q291 -10 233 -10Q199 -10 182 11T168 72ZM371 567H641L680 854H410L371 567Z" />
<glyph unicode="$" glyph-name="dollar" horiz-adv-x="1110" d="M164 80Q121 104 121 152Q121 188 143 212T201 236Q224 236 248 223Q372 146 512 137V629Q329 662 236 760T143 1010Q143 1179 244 1288T512 1413V1493Q512 1519 525 1533T563 1548Q585 1548 598
1534T612 1493V1413Q750 1402 868 1337Q913 1312 913 1268Q913 1235 891 1211T836 1186Q810 1186 788 1198Q691 1244 612 1251V780Q798 748 891 651T985 399Q985 228 886 117T612 -16V-100Q612 -126 599 -141T563 -156Q540 -156 526 -141T512 -100V-23Q323 -16
164 80ZM512 799V1251Q419 1239 365 1178T311 1024Q311 935 356 881T512 799ZM612 143Q709 161 763 224T817 389Q817 475 769 530T612 610V143Z" />
<glyph unicode="%" glyph-name="percent" horiz-adv-x="1593" d="M352 29Q352 49 360 66L1126 1386Q1147 1423 1184 1423Q1209 1423 1225 1407T1241 1364Q1241 1343 1233 1327L467 6Q448 -31 410 -31Q385 -31 369 -14T352 29ZM406 676Q319 676 257 718T170 834Q160
865 157 901T154 1042Q154 1147 157 1183T170 1251Q195 1325 257 1367T406 1409Q492 1409 554 1367T641 1251Q651 1219 654 1183T657 1042Q657 938 654 902T641 834Q616 760 554 718T406 676ZM406 795Q492 795 516 866Q526 901 526 1042Q526 1184 516 1219Q492
1290 406 1290Q319 1290 295 1219Q285 1184 285 1042Q285 901 295 866Q319 795 406 795ZM952 139Q942 171 939 207T936 348Q936 453 939 489T952 557Q977 630 1039 672T1188 715T1337 673T1423 557Q1433 526 1436 490T1440 348Q1440 243 1437 207T1423 139Q1399
66 1337 24T1188 -18T1039 24T952 139ZM1077 172Q1103 100 1188 100T1298 172Q1309 205 1309 348Q1309 493 1298 524Q1273 596 1188 596T1077 524Q1067 491 1067 348Q1067 207 1077 172Z" />
<glyph unicode="&amp;" glyph-name="ampersand" horiz-adv-x="1296" d="M143 338Q143 455 209 558T420 778Q316 914 281 980T246 1116Q246 1246 336 1330T565 1415Q705 1415 795 1330T885 1118Q885 1026 831 947T637 756L901 414L1010 547Q1038 578 1071 578Q1100
578 1120 558T1141 506T1120 453L995 293L1067 201Q1097 163 1143 160Q1179 159 1201 137T1223 82Q1223 46 1201 23T1139 0H1126Q1063 0 1023 20T942 96L887 166Q796 69 707 23T512 -23Q340 -23 242 77T143 338ZM545 877Q655 965 690 1014T725 1120Q725 1186 680
1228T565 1270Q495 1270 454 1228T412 1118Q412 1075 436 1031T545 877ZM305 350Q305 250 361 190T522 129Q589 129 648 161T795 289L512 657Q403 571 354 500T305 350Z" />
<glyph unicode="&apos;" glyph-name="quotesingle" horiz-adv-x="405" d="M203 1020Q173 1020 155 1039T137 1092V1331Q137 1364 155 1383T203 1403Q234 1403 251 1384T268 1331V1092Q268 1058 251 1039T203 1020Z" />
<glyph unicode="(" glyph-name="parenleft" horiz-adv-x="583" d="M344 -135Q129 270 129 672T344 1479Q371 1524 414 1524Q442 1524 460 1505T479 1460Q479 1438 469 1417Q295 1045 295 672Q295 298 469 -74Q479 -94 479 -117Q479 -143 461 -161T414 -180Q370
-180 344 -135Z" />
<glyph unicode=")" glyph-name="parenright" horiz-adv-x="583" d="M115 -74Q289 301 289 672Q289 1042 115 1417Q104 1438 104 1460Q104 1486 123 1505T170 1524Q212 1524 240 1479Q455 1074 455 672T240 -135Q212 -180 170 -180Q142 -180 123 -162T104 -117Q104
-94 115 -74Z" />
<glyph unicode="*" glyph-name="asterisk" horiz-adv-x="700" d="M372 797T350 797T314 812T299 852V1014L162 932Q146 924 129 924Q107 924 94 937T80 973Q80 1005 111 1020L252 1100L111 1180Q80 1195 80 1227Q80 1248 93 1262T129 1276Q146 1276 162 1268L299
1184V1348Q299 1373 313 1388T350 1403T386 1388T401 1348L397 1182L539 1268Q555 1276 571 1276Q593 1276 607 1262T621 1227Q621 1196 590 1180L446 1100L590 1020Q621 1004 621 973Q621 951 607 938T571 924Q555 924 539 932L397 1016L401 852Q401 826 387 812Z"
/>
<glyph unicode="+" glyph-name="plus" horiz-adv-x="1110" d="M477 211V477Q477 489 465 489H201Q161 489 139 510T117 565T139 620T201 641H465Q477 641 477 653V920Q477 960 498 983T555 1006T611 983T633 920V653Q633 641 645 641H909Q949 641 971 620T993
565T971 510T909 489H645Q633 489 633 477V211Q633 171 612 148T555 125T499 148T477 211Z" />
<glyph unicode="," glyph-name="comma" horiz-adv-x="471" d="M96 -166L193 129Q215 193 270 193Q305 193 328 172T352 115Q352 92 346 74L246 -221Q223 -285 168 -285Q134 -285 112 -264T90 -207Q90 -184 96 -166Z" />
<glyph unicode="-" glyph-name="hyphen" horiz-adv-x="778" d="M168 465Q130 465 107 488T84 545T107 602T168 625H610Q648 625 671 603T694 545T671 488T610 465H168Z" />
<glyph unicode="." glyph-name="period" horiz-adv-x="483" d="M125 106Q125 154 159 188T242 223Q289 223 323 189T358 106Q358 59 324 25T242 -10Q194 -10 160 24T125 106Z" />
<glyph unicode="/" glyph-name="slash" horiz-adv-x="854" d="M141 43Q141 57 147 76L563 1362Q581 1423 635 1423Q668 1423 690 1403T713 1350Q713 1335 707 1317L291 31Q273 -31 219 -31Q186 -31 164 -11T141 43Z" />
<glyph unicode="0" glyph-name="zero" horiz-adv-x="1110" d="M174 242Q164 274 159 310T148 444T143 696T148 948T158 1082T174 1151Q215 1279 313 1347T555 1415T797 1347T936 1151Q946 1119 951 1083T962 948T967 696Q967 475 959 384T936 242Q895 114 797
46T555 -23T313 45T174 242ZM344 276Q368 208 423 173T555 137T687 172T766 276Q778 312 783 393T788 696T783 998T766 1116Q742 1184 687 1219T555 1255T423 1220T344 1116Q332 1080 327 999T322 696T327 394T344 276Z" />
<glyph unicode="1" glyph-name="one" horiz-adv-x="1110" d="M510 82V1176H506L330 1053Q307 1036 281 1036Q245 1036 223 1058T201 1116Q201 1161 246 1192L471 1356Q534 1403 590 1403Q631 1403 656 1377T682 1305V82Q682 40 658 15T596 -10T534 15T510 82Z" />
<glyph unicode="2" glyph-name="two" horiz-adv-x="1110" d="M145 76Q145 103 156 127T197 190L672 797Q768 922 768 1036Q768 1133 709 1194T549 1255Q377 1255 328 1087Q306 1020 248 1020Q209 1020 186 1042T162 1100Q162 1114 166 1130Q179 1186 209 1235T285
1326T402 1391T555 1415Q732 1415 838 1309T944 1036Q944 868 807 698L381 164V160H874Q914 160 936 138T958 80T936 22T874 0H229Q190 0 168 21T145 76Z" />
<glyph unicode="3" glyph-name="three" horiz-adv-x="1110" d="M158 219Q152 237 152 258Q152 292 175 314T233 336Q284 336 315 276Q387 137 551 137Q662 137 726 205T791 385Q791 501 721 571T535 641H520Q481 641 459 663T436 721T458 779T520 801H532Q636
801 700 864T764 1034Q764 1135 704 1195T541 1255Q388 1255 328 1122Q299 1063 248 1063Q213 1063 191 1084T168 1139Q168 1156 176 1182Q211 1283 307 1349T547 1415Q727 1415 833 1312T940 1042Q940 939 892 863T768 739V735Q845 703 906 610T967 387Q967 206
851 92T551 -23Q399 -23 300 43T158 219Z" />
<glyph unicode="4" glyph-name="four" horiz-adv-x="1110" d="M186 252Q144 252 120 275T96 336Q96 372 127 438L547 1343Q575 1403 627 1403Q661 1403 685 1380T709 1321Q709 1299 698 1280L297 414V410H666Q678 410 678 422V713Q678 755 702 779T764 803T826
779T850 713V422Q850 410 862 410H944Q982 410 1005 388T1028 330Q1028 296 1005 274T944 252H862Q850 252 850 240V80Q850 39 826 15T764 -10T703 14T678 80V240Q678 252 666 252H186Z" />
<glyph unicode="5" glyph-name="five" horiz-adv-x="1110" d="M188 219Q182 234 182 256Q182 290 205 312T266 334Q318 334 346 274Q411 137 567 137Q641 137 697 173T774 274Q793 336 793 451T772 625Q727 760 573 760Q507 760 461 735T377 655Q352 621 331 608T281
594Q242 594 221 617T199 682V1317Q199 1352 219 1372T274 1393H864Q904 1393 926 1371T948 1313T926 1255T864 1233H371Q358 1233 358 1221V827H362Q392 867 453 893T596 920Q724 920 812 861T938 690Q969 588 969 451Q969 313 940 223Q902 107 802 42T567 -23Q424
-23 323 44T188 219Z" />
<glyph unicode="6" glyph-name="six" horiz-adv-x="1110" d="M129 403Q129 551 221 721L561 1354Q589 1403 639 1403Q673 1403 696 1382T719 1325Q719 1296 705 1274L442 795L446 791Q494 823 588 823Q757 823 870 710T983 410Q983 210 863 94T555 -23T249 92T129
403ZM305 401Q305 284 373 211T555 137T737 210T807 401T738 591T555 664Q442 664 374 592T305 401Z" />
<glyph unicode="7" glyph-name="seven" horiz-adv-x="1110" d="M326 72Q326 83 334 109L776 1227V1233H352Q340 1233 340 1219V1108Q340 1067 318 1043T258 1018T199 1042T176 1108V1313Q176 1350 198 1371T258 1393H881Q925 1393 949 1369T973 1305Q973 1267
944 1198L489 47Q464 -10 408 -10Q372 -10 349 13T326 72Z" />
<glyph unicode="8" glyph-name="eight" horiz-adv-x="1110" d="M125 387Q125 505 179 594T322 731V735Q251 774 205 852T158 1030Q158 1192 266 1303T555 1415Q676 1415 768 1362T906 1223T952 1030Q952 931 906 853T788 735V731Q876 684 930 595T985 387Q985
206 865 92T555 -23T246 91T125 387ZM456 811T555 811T715 875T776 1034Q776 1128 715 1191T555 1255T396 1192T334 1034Q334 939 395 875ZM301 395Q301 282 371 210T555 137Q669 137 739 209T809 395Q809 507 739 579T555 651T371 579T301 395Z" />
<glyph unicode="9" glyph-name="nine" horiz-adv-x="1110" d="M391 68Q391 96 406 119L668 598L664 602Q614 569 522 569Q354 569 241 683T127 983Q127 1182 247 1298T555 1415T861 1300T981 989Q981 842 889 672L549 39Q522 -10 471 -10Q436 -10 414 11T391 68ZM442
729T555 729T736 801T805 991Q805 1109 737 1182T555 1255T373 1182T303 991Q303 874 372 802Z" />
<glyph unicode=":" glyph-name="colon" horiz-adv-x="497" d="M250 758Q202 758 168 792T133 874Q133 922 167 956T250 991Q297 991 332 957T367 874Q367 827 332 793T250 758ZM131 106Q131 154 165 188T248 223Q295 223 330 189T365 106Q365 59 330 25T248 -10Q200
-10 166 24T131 106Z" />
<glyph unicode=";" glyph-name="semicolon" horiz-adv-x="497" d="M250 758Q202 758 168 792T133 874Q133 922 167 956T250 991Q297 991 332 957T367 874Q367 827 332 793T250 758ZM82 -166L178 129Q201 193 256 193Q291 193 314 172T338 115Q338 92 332 74L231
-221Q209 -285 154 -285Q120 -285 98 -264T76 -207Q76 -184 82 -166Z" />
<glyph unicode="&lt;" glyph-name="less" horiz-adv-x="1110" d="M201 469Q117 502 117 565Q117 630 201 662L881 942Q896 948 918 948Q951 948 972 928T993 874Q993 820 938 799L354 567V563L938 332Q993 310 993 256Q993 223 972 203T918 182Q896 182 881 188L201 469Z" />
<glyph unicode="=" glyph-name="equal" horiz-adv-x="1110" d="M201 694Q161 694 139 715T117 770T139 825T201 846H909Q949 846 971 825T993 770T971 715T909 694H201ZM201 285Q161 285 139 305T117 360Q117 395 139 415T201 436H909Q949 436 971 416T993 360Q993
326 971 306T909 285H201Z" />
<glyph unicode="&gt;" glyph-name="greater" horiz-adv-x="1110" d="M193 182Q160 182 139 202T117 256Q117 310 172 332L756 563V567L172 799Q117 820 117 874Q117 908 138 928T193 948Q214 948 229 942L909 662Q993 630 993 565Q993 502 909 469L229 188Q214
182 193 182Z" />
<glyph unicode="?" glyph-name="question" horiz-adv-x="933" d="M495 365T457 365T395 388T371 453V483Q371 543 387 590T446 688L559 836Q621 916 642 962T664 1063Q664 1152 609 1203T465 1255Q303 1255 258 1102Q235 1032 174 1032Q138 1032 115 1053T92 1110Q92
1124 98 1151Q130 1268 227 1341T469 1415Q634 1415 737 1317T840 1067Q840 989 813 926T723 780L610 633Q570 580 557 548T543 473V453Q543 412 519 389ZM340 106Q340 154 374 188T457 223Q504 223 538 189T573 106Q573 59 539 25T457 -10Q409 -10 375 24T340
106Z" />
<glyph unicode="@" glyph-name="at" horiz-adv-x="1828" d="M96 547Q96 722 155 872T320 1127T577 1292T905 1352Q1081 1352 1231 1293T1487 1128T1652 872T1712 547Q1712 330 1622 222T1386 113Q1298 113 1236 152T1141 262H1139Q1068 113 862 113Q753 113 679
164T573 315Q545 402 545 539Q545 674 573 760Q605 860 677 911T854 963Q941 963 1002 932T1094 850H1098V885Q1100 915 1118 933T1169 952Q1202 952 1221 932T1241 877V422Q1241 335 1282 291T1389 246Q1470 246 1518 319T1567 547Q1567 744 1487 896T1255 1134T905
1219Q604 1219 423 1033T242 547Q242 243 424 60T911 -123Q1138 -123 1319 -43Q1335 -35 1352 -35Q1378 -35 1395 -51T1413 -94Q1413 -134 1374 -156Q1178 -256 911 -256Q674 -256 489 -156T200 127T96 547ZM711 379Q755 250 895 250T1079 379Q1098 436 1098 539Q1098
641 1079 698Q1035 827 895 827T711 698Q692 641 692 539Q692 436 711 379Z" />
<glyph unicode="A" glyph-name="A" horiz-adv-x="1243" d="M68 74Q68 89 76 115L504 1300Q538 1403 623 1403Q711 1403 745 1300L1167 115Q1176 86 1176 74Q1176 37 1151 14T1090 -10Q1024 -10 1001 55L907 324H336L242 55Q219 -10 154 -10Q117 -10 93 13T68 74ZM395
492H848L627 1124H621L395 492Z" />
<glyph unicode="B" glyph-name="B" horiz-adv-x="1236" d="M172 82V1311Q172 1348 194 1370T254 1393H686Q891 1393 998 1296T1106 1028Q1106 910 1057 833T918 723V719Q1002 696 1066 611T1130 397Q1130 203 1013 102T680 0H254Q216 0 194 22T172 82ZM367 791H682Q796
791 861 850T926 1008Q926 1109 861 1168T682 1227H367Q354 1227 354 1214V803Q354 791 367 791ZM354 178Q354 166 367 166H692Q815 166 881 227T948 395Q948 500 881 562T692 625H367Q354 625 354 612V178Z" />
<glyph unicode="C" glyph-name="C" horiz-adv-x="1153" d="M162 307Q138 380 131 460T123 696Q123 852 130 932T162 1085Q214 1246 332 1330T627 1415Q760 1415 867 1355T1034 1188Q1051 1159 1051 1130Q1051 1093 1027 1070T967 1047Q917 1047 885 1098Q835 1173
773 1209T627 1245Q516 1245 444 1188T340 1030Q307 934 307 696Q307 460 340 362Q372 261 444 204T627 147Q711 147 772 183T885 295Q917 346 967 346Q1003 346 1027 323T1051 262Q1051 232 1034 205Q975 98 868 38T627 -23Q451 -23 333 61T162 307Z" />
<glyph unicode="D" glyph-name="D" horiz-adv-x="1275" d="M172 82V1311Q172 1348 194 1370T254 1393H608Q1010 1393 1112 1075Q1135 1007 1144 927T1153 696Q1153 547 1144 467T1112 317Q1010 0 608 0H254Q216 0 194 22T172 82ZM354 182Q354 170 367 170H596Q737
170 818 218T936 379Q969 487 969 696Q969 906 936 1014Q900 1125 818 1174T596 1223H367Q354 1223 354 1210V182Z" />
<glyph unicode="E" glyph-name="E" horiz-adv-x="1153" d="M172 82V1311Q172 1348 194 1370T254 1393H971Q1011 1393 1036 1369T1061 1309Q1061 1272 1037 1248T971 1223H367Q354 1223 354 1210V801Q354 788 367 788H870Q911 788 936 765T961 705Q961 667 936
643T870 618H367Q354 618 354 606V182Q354 170 367 170H971Q1011 170 1036 146T1061 86Q1061 49 1037 25T971 0H254Q216 0 194 22T172 82Z" />
<glyph unicode="F" glyph-name="F" horiz-adv-x="1138" d="M172 88V1311Q172 1348 194 1370T254 1393H969Q1009 1393 1034 1369T1059 1309Q1059 1272 1035 1248T969 1223H367Q354 1223 354 1210V786Q354 774 367 774H868Q909 774 933 750T958 690Q958 652 934
628T868 604H367Q354 604 354 594V88Q354 43 329 17T264 -10Q222 -10 197 16T172 88Z" />
<glyph unicode="G" glyph-name="G" horiz-adv-x="1267" d="M162 307Q138 380 131 460T123 696Q123 852 130 932T162 1085Q214 1246 334 1330T633 1415Q786 1415 899 1355T1067 1190Q1081 1162 1081 1135Q1081 1097 1057 1074T997 1051Q947 1051 915 1102Q824 1245
633 1245Q408 1245 340 1030Q307 934 307 696Q307 460 340 362Q408 147 633 147Q747 147 825 200T936 354Q963 440 963 561Q963 573 950 573H737Q696 573 672 597T647 659T671 719T737 743H1061Q1099 743 1122 721T1145 659V621Q1145 434 1106 313Q1054 150 932
64T633 -23Q454 -23 334 61T162 307Z" />
<glyph unicode="H" glyph-name="H" horiz-adv-x="1337" d="M172 88V1305Q172 1350 197 1376T264 1403Q304 1403 329 1377T354 1305V801Q354 788 367 788H971Q983 788 983 801V1305Q983 1350 1008 1376T1075 1403Q1115 1403 1140 1377T1165 1305V88Q1165 43 1140
17T1075 -10Q1033 -10 1008 16T983 88V606Q983 618 971 618H367Q354 618 354 606V88Q354 43 329 17T264 -10Q222 -10 197 16T172 88Z" />
<glyph unicode="I" glyph-name="I" horiz-adv-x="526" d="M172 88V1305Q172 1350 197 1376T264 1403Q304 1403 329 1377T354 1305V88Q354 43 329 17T264 -10Q222 -10 197 16T172 88Z" />
<glyph unicode="J" glyph-name="J" horiz-adv-x="1001" d="M106 80Q76 107 76 147Q76 182 99 205T158 229Q187 229 223 205Q313 147 406 147Q657 147 657 446V1305Q657 1350 682 1376T750 1403Q790 1403 815 1377T840 1305V446Q840 217 724 97T401 -23Q317 -23
237 6T106 80Z" />
<glyph unicode="K" glyph-name="K" horiz-adv-x="1222" d="M172 88V1305Q172 1350 197 1376T264 1403Q304 1403 329 1377T354 1305V641L948 1364Q982 1403 1024 1403Q1057 1403 1081 1380T1106 1323Q1106 1291 1081 1264L725 842L1133 133Q1151 103 1151 76Q1151
40 1127 15T1065 -10Q1009 -10 979 43L604 700L354 397V88Q354 43 329 17T264 -10Q222 -10 197 16T172 88Z" />
<glyph unicode="L" glyph-name="L" horiz-adv-x="1101" d="M172 90V1305Q172 1350 197 1376T262 1403Q303 1403 328 1377T354 1305V182Q354 170 367 170H971Q1011 170 1036 146T1061 86Q1061 49 1037 25T971 0H260Q219 0 196 24T172 90Z" />
<glyph unicode="M" glyph-name="M" horiz-adv-x="1546" d="M172 82V1290Q172 1342 199 1372T274 1403Q314 1403 340 1380T389 1305L774 434H780L1159 1305Q1182 1356 1207 1379T1272 1403Q1319 1403 1346 1373T1374 1290V82Q1374 40 1351 15T1288 -10Q1250 -10
1227 14T1204 82V989H1198L879 283Q855 230 832 212T772 193T714 211T668 283L348 989H342V82Q342 39 319 15T258 -10Q219 -10 196 15T172 82Z" />
<glyph unicode="N" glyph-name="N" horiz-adv-x="1339" d="M172 82V1292Q172 1343 198 1373T272 1403Q310 1403 338 1380T395 1309L989 328H997V1311Q997 1353 1020 1378T1081 1403Q1120 1403 1143 1379T1167 1311V100Q1167 49 1141 20T1067 -10Q998 -10 942 84L348
1061H342V82Q342 40 319 15T258 -10Q219 -10 196 15T172 82Z" />
<glyph unicode="O" glyph-name="O" horiz-adv-x="1267" d="M633 -23Q454 -23 334 61T162 307Q138 380 131 460T123 696Q123 852 130 932T162 1085Q214 1246 334 1330T633 1415Q813 1415 933 1331T1106 1085Q1130 1013 1137 933T1145 696Q1145 541 1138 461T1106
307Q1053 146 933 62T633 -23ZM633 147Q860 147 928 362Q961 464 961 696Q961 930 928 1030Q860 1245 633 1245Q408 1245 340 1030Q307 934 307 696Q307 460 340 362Q408 147 633 147Z" />
<glyph unicode="P" glyph-name="P" horiz-adv-x="1212" d="M172 88V1311Q172 1348 194 1370T254 1393H684Q891 1393 1010 1279T1130 977T1011 675T684 561H367Q354 561 354 549V88Q354 43 329 17T264 -10Q222 -10 197 16T172 88ZM678 731Q806 731 878 796T950
977Q950 1091 878 1157T678 1223H367Q354 1223 354 1210V743Q354 731 367 731H678Z" />
<glyph unicode="Q" glyph-name="Q" horiz-adv-x="1267" d="M633 -23Q454 -23 334 61T162 307Q138 380 131 460T123 696Q123 852 130 932T162 1085Q214 1246 334 1330T633 1415Q813 1415 933 1331T1106 1085Q1130 1013 1137 933T1145 696Q1145 541 1138 461T1106
307Q1089 253 1053 193L1161 84Q1190 55 1190 16Q1190 -18 1166 -43T1106 -68Q1069 -68 1036 -37L936 63Q815 -23 633 -23ZM633 147Q736 147 807 193L692 309Q664 338 664 377Q664 411 688 436T748 461Q788 461 817 430L915 330L928 362Q961 464 961 696Q961 930
928 1030Q860 1245 633 1245Q408 1245 340 1030Q307 934 307 696Q307 460 340 362Q408 147 633 147Z" />
<glyph unicode="R" glyph-name="R" horiz-adv-x="1263" d="M264 -10Q222 -10 197 16T172 88V1311Q172 1348 194 1370T254 1393H690Q893 1393 1011 1284T1130 991Q1130 852 1061 755T866 616L1116 125Q1128 101 1128 76Q1128 40 1104 15T1040 -10Q986 -10 952 47L678
590H367Q354 590 354 578V88Q354 43 329 17T264 -10ZM692 760Q813 760 881 821T950 991T882 1161T692 1223H367Q354 1223 354 1210V772Q354 760 367 760H692Z" />
<glyph unicode="S" glyph-name="S" horiz-adv-x="1210" d="M592 -23Q466 -23 354 14T160 109Q115 140 115 188Q115 223 139 248T203 274Q231 274 260 256Q433 147 606 147Q752 147 835 211T918 385Q918 479 854 533T627 612L559 623Q349 655 248 750T147 1010Q147
1195 270 1305T602 1415Q709 1415 806 1389T971 1321Q1020 1289 1020 1241Q1020 1207 997 1183T938 1159Q913 1159 879 1176Q719 1245 596 1245Q468 1245 400 1183T332 1020Q332 928 397 874T621 797L688 786Q899 754 1000 658T1102 395Q1102 208 970 93T592 -23Z"
/>
<glyph unicode="T" glyph-name="T" horiz-adv-x="1099" d="M125 1393H975Q1016 1393 1040 1369T1065 1307Q1065 1271 1040 1247T975 1223H653Q641 1223 641 1210V88Q641 43 616 17T551 -10Q509 -10 484 16T459 88V1210Q459 1223 446 1223H125Q85 1223 60 1247T35
1307Q35 1344 59 1368T125 1393Z" />
<glyph unicode="U" glyph-name="U" horiz-adv-x="1308" d="M965 487V1305Q965 1351 990 1377T1057 1403Q1097 1403 1122 1377T1147 1305V487Q1147 238 1015 108T653 -23Q426 -23 294 107T162 487V1305Q162 1350 187 1376T254 1403Q294 1403 319 1377T344 1305V487Q344
322 428 235T655 147T881 234T965 487Z" />
<glyph unicode="V" glyph-name="V" horiz-adv-x="1153" d="M229 1331L578 295H584L926 1331Q947 1403 1012 1403Q1050 1403 1075 1379T1100 1317Q1100 1296 1092 1272L688 94Q668 38 643 14T575 -10Q534 -10 509 14T465 94L61 1272Q53 1296 53 1317Q53 1354 78
1378T141 1403Q204 1403 229 1331Z" />
<glyph unicode="W" glyph-name="W" horiz-adv-x="1683" d="M1256 -10T1219 -10T1159 12T1120 88L846 1059H842L563 88Q548 36 525 13T465 -10T404 13T367 88L63 1274Q57 1298 57 1317Q57 1353 81 1378T145 1403Q215 1403 233 1325L473 338H477L750 1315Q774 1403
844 1403Q912 1403 936 1315L1214 336H1219L1450 1325Q1468 1403 1538 1403Q1578 1403 1602 1378T1626 1317Q1626 1298 1620 1274L1317 88Q1303 36 1280 13Z" />
<glyph unicode="X" glyph-name="X" horiz-adv-x="1138" d="M895 39L571 561H569L244 39Q213 -10 166 -10Q128 -10 103 14T78 74Q78 104 94 131L467 725L131 1262Q115 1289 115 1319Q115 1355 140 1379T203 1403Q249 1403 281 1354L569 889H571L862 1354Q894 1403
940 1403Q978 1403 1003 1379T1028 1319Q1028 1289 1012 1262L672 725L1044 131Q1061 105 1061 74Q1061 38 1036 14T973 -10Q925 -10 895 39Z" />
<glyph unicode="Y" glyph-name="Y" horiz-adv-x="1077" d="M1010 1268L629 565V88Q629 43 604 17T539 -10T474 16T449 88V565L68 1268Q53 1295 53 1321Q53 1355 78 1379T139 1403Q191 1403 219 1350L539 756H545L860 1350Q890 1403 940 1403Q976 1403 1000 1379T1024
1321Q1024 1296 1010 1268Z" />
<glyph unicode="Z" glyph-name="Z" horiz-adv-x="1097" d="M924 0H180Q136 0 110 23T84 86Q84 135 137 215L788 1221V1223H201Q160 1223 136 1247T111 1307Q111 1345 135 1369T201 1393H918Q962 1393 988 1369T1014 1305Q1014 1278 1004 1253T965 1182L309 172V170H924Q964
170 989 146T1014 86Q1014 49 990 25T924 0Z" />
<glyph unicode="[" glyph-name="bracketleft" horiz-adv-x="575" d="M434 -172H233Q164 -172 164 -102V1446Q164 1516 233 1516H434Q470 1516 490 1498T510 1446T490 1395T434 1376H338Q326 1376 326 1364V-20Q326 -33 338 -33H434Q470 -33 490 -51T510 -102T490
-153T434 -172Z" />
<glyph unicode="\" glyph-name="backslash" horiz-adv-x="854" d="M635 -31Q581 -31 563 31L147 1317Q141 1335 141 1350Q141 1383 163 1403T219 1423Q273 1423 291 1362L707 76Q713 57 713 43Q713 10 691 -10T635 -31Z" />
<glyph unicode="]" glyph-name="bracketright" horiz-adv-x="575" d="M342 -172H141Q105 -172 86 -154T66 -102T85 -51T141 -33H238Q250 -33 250 -20V1364Q250 1376 238 1376H141Q105 1376 86 1394T66 1446T85 1497T141 1516H342Q412 1516 412 1446V-102Q412 -172
342 -172Z" />
<glyph unicode="^" glyph-name="asciicircum" horiz-adv-x="1110" d="M885 549Q832 549 811 604L557 1178H553L299 604Q278 549 225 549Q191 549 171 569T150 621Q150 643 160 664L461 1329Q494 1403 555 1403T649 1329L950 664Q961 641 961 621Q961 589 940 569T885
549Z" />
<glyph unicode="_" glyph-name="underscore" horiz-adv-x="983" d="M983 -270H0V-156H983V-270Z" />
<glyph unicode="`" glyph-name="grave" d="M504 1124Q472 1124 446 1157L328 1333Q311 1359 311 1384Q311 1412 331 1431T381 1450Q421 1450 442 1415L557 1239Q571 1214 571 1190Q571 1160 553 1142T504 1124Z" />
<glyph unicode="a" glyph-name="a" horiz-adv-x="1064" d="M956 121Q971 96 971 72Q971 37 946 14T883 -10Q837 -10 807 33L768 94H766Q662 -23 465 -23Q301 -23 210 54T119 272Q119 422 218 498T502 575H725Q737 575 737 588V635Q737 742 682 796T502 850Q397
850 301 801Q271 786 252 786Q218 786 198 806T178 860Q178 906 219 930Q331 1004 518 1004Q903 1004 903 637V285Q903 221 922 184L956 121ZM489 125Q604 125 670 176T737 317V426Q737 438 725 438H528Q402 438 344 400T285 279Q285 125 489 125Z" />
<glyph unicode="b" glyph-name="b" horiz-adv-x="1101" d="M292 -10T254 -10T192 15T168 82V1311Q168 1353 192 1378T254 1403T316 1378T340 1311V872H342Q420 1004 621 1004Q744 1004 831 939T958 758Q993 649 993 492Q993 332 958 223Q919 107 832 42T621 -23Q422
-23 342 109H340V82Q340 40 316 15ZM580 137Q660 137 715 177T795 291Q817 356 817 492Q817 625 795 690Q770 764 715 804T580 844Q414 844 362 690Q340 625 340 492Q340 356 362 291Q414 137 580 137Z" />
<glyph unicode="c" glyph-name="c" horiz-adv-x="966" d="M526 -23Q384 -23 283 46T139 242Q109 340 109 492Q109 641 139 739Q181 866 282 935T526 1004Q728 1004 840 860Q864 827 864 797Q864 765 842 743T788 721Q749 721 713 762Q638 844 526 844Q445 844
388 805T307 690Q285 620 285 492Q285 361 307 291Q331 215 388 176T526 137Q638 137 713 219Q749 260 788 260Q820 260 842 238T864 184Q864 154 840 121Q728 -23 526 -23Z" />
<glyph unicode="d" glyph-name="d" horiz-adv-x="1101" d="M886 -10T848 -10T786 15T762 82V109H760Q680 -23 481 -23Q358 -23 270 42T143 223Q109 334 109 492Q109 648 143 758Q182 874 270 939T481 1004Q682 1004 760 872H762V1311Q762 1353 786 1378T848 1403T910
1378T934 1311V82Q934 40 910 15ZM522 137Q604 137 659 177T739 291Q762 355 762 492Q762 626 739 690Q715 764 660 804T522 844Q442 844 387 804T307 690Q285 625 285 492Q285 356 307 291Q332 217 387 177T522 137Z" />
<glyph unicode="e" glyph-name="e" horiz-adv-x="1048" d="M537 -23Q385 -23 284 45T141 244Q109 342 109 492Q109 648 139 739Q181 866 281 935T522 1004Q667 1004 767 936T907 741Q940 648 940 504Q940 475 922 457T872 438H297Q285 438 285 426Q285 359 301
307Q328 224 392 181T549 137Q618 137 672 157T784 221Q815 246 844 246Q875 246 895 226T915 174Q915 139 889 113Q743 -23 537 -23ZM297 575H752Q764 575 764 588Q764 656 750 698Q725 772 666 812T524 852T383 812T299 698Q285 656 285 588Q285 575 297 575Z"
/>
<glyph unicode="f" glyph-name="f" horiz-adv-x="653" d="M385 981H530Q565 981 584 962T604 911Q604 880 585 861T530 842H385Q373 842 373 829V82Q373 40 349 15T287 -10T225 15T201 82V829Q201 842 188 842H133Q98 842 79 861T59 911T78 961T133 981H188Q201
981 201 993V1079Q201 1252 273 1322T504 1393H518Q562 1393 585 1371T608 1313T586 1255T524 1233Q429 1233 401 1206T373 1090V993Q373 981 385 981Z" />
<glyph unicode="g" glyph-name="g" horiz-adv-x="1085" d="M743 874H745V899Q745 941 769 966T831 991T893 966T918 899V49Q918 -168 807 -279T489 -391Q395 -391 310 -358T178 -274Q154 -250 154 -219Q154 -185 176 -162T231 -139T301 -166Q388 -231 496 -231Q745
-231 745 35V141H743Q666 12 469 12Q347 12 262 76T139 256Q106 361 106 508T139 760Q176 876 261 940T469 1004Q660 1004 743 874ZM357 170T514 170T723 324Q745 389 745 508Q745 625 723 690Q671 844 514 844T305 690Q283 625 283 508Q283 389 305 324Q357 170
514 170Z" />
<glyph unicode="h" glyph-name="h" horiz-adv-x="1116" d="M168 82V1311Q168 1353 192 1378T254 1403T316 1378T340 1311V870H342Q379 930 450 967T616 1004Q774 1004 865 904T956 635V82Q956 40 932 15T870 -10T808 15T784 82V594Q784 715 729 779T565 844Q465
844 403 779T340 604V82Q340 40 316 15T254 -10T192 15T168 82Z" />
<glyph unicode="i" glyph-name="i" horiz-adv-x="507" d="M300 1178T254 1178T175 1211T141 1290Q141 1337 174 1370T254 1403T333 1370T367 1290Q367 1244 334 1211ZM168 82V899Q168 941 192 966T254 991T316 966T340 899V82Q340 40 316 15T254 -10T192 15T168 82Z" />
<glyph unicode="j" glyph-name="j" horiz-adv-x="507" d="M300 1178T254 1178T175 1211T141 1290Q141 1337 174 1370T254 1403T333 1370T367 1290Q367 1244 334 1211ZM168 -76V899Q168 941 192 966T254 991T316 966T340 899V-74Q340 -229 271 -299T57 -369Q18
-369 -3 -347T-25 -289Q-25 -255 -5 -234T51 -209Q120 -203 144 -177T168 -76Z" />
<glyph unicode="k" glyph-name="k" horiz-adv-x="1046" d="M168 82V1311Q168 1353 192 1378T254 1403T316 1378T340 1311V508L741 961Q770 991 807 991Q837 991 858 971T879 920Q879 892 854 862L627 614L936 119Q950 95 950 68Q950 35 927 13T868 -10Q819 -10
788 39L512 492L340 299V82Q340 40 316 15T254 -10T192 15T168 82Z" />
<glyph unicode="l" glyph-name="l" horiz-adv-x="571" d="M422 -10H403Q274 -10 219 53T164 252V1311Q164 1353 188 1378T250 1403T312 1378T336 1311V262Q336 201 357 176T430 150Q466 150 488 128T510 70T487 12T422 -10Z" />
<glyph unicode="m" glyph-name="m" horiz-adv-x="1730" d="M168 82V899Q168 941 192 966T254 991T316 966T340 899V870H342Q431 1004 616 1004Q716 1004 789 964T903 850H905Q1015 1004 1223 1004Q1388 1004 1480 906T1573 635V82Q1573 40 1549 15T1487 -10T1425
15T1401 82V594Q1401 714 1346 779T1182 844Q1081 844 1019 779T956 604V82Q956 40 932 15T870 -10T808 15T784 82V594Q784 715 729 779T565 844Q465 844 403 779T340 604V82Q340 40 316 15T254 -10T192 15T168 82Z" />
<glyph unicode="n" glyph-name="n" horiz-adv-x="1114" d="M168 82V899Q168 941 192 966T254 991T316 966T340 899V870H342Q379 930 450 967T616 1004Q774 1004 865 904T956 635V82Q956 40 932 15T870 -10T808 15T784 82V594Q784 715 729 779T565 844Q465 844
403 779T340 604V82Q340 40 316 15T254 -10T192 15T168 82Z" />
<glyph unicode="o" glyph-name="o" horiz-adv-x="1056" d="M528 -23Q386 -23 284 47T141 242Q109 339 109 492Q109 642 141 739Q181 865 283 934T528 1004T773 935T915 739Q948 643 948 492Q948 338 915 242Q875 117 773 47T528 -23ZM528 137Q610 137 667 177T750
291Q772 364 772 492Q772 617 750 690Q725 764 668 804T528 844Q447 844 390 804T307 690Q285 617 285 492Q285 364 307 291Q332 217 389 177T528 137Z" />
<glyph unicode="p" glyph-name="p" horiz-adv-x="1101" d="M292 -379T254 -379T192 -354T168 -287V899Q168 941 192 966T254 991T316 966T340 899V872H342Q422 1004 621 1004Q744 1004 831 939T958 758Q993 649 993 489Q993 332 958 223Q919 107 832 42T621 -23Q420
-23 342 109H340V-287Q340 -329 316 -354ZM580 137Q660 137 715 177T795 291Q817 356 817 489Q817 625 795 690Q770 764 715 804T580 844Q414 844 362 690Q340 625 340 489Q340 356 362 291Q414 137 580 137Z" />
<glyph unicode="q" glyph-name="q" horiz-adv-x="1101" d="M886 -379T848 -379T786 -354T762 -287V109H760Q682 -23 481 -23Q358 -23 270 42T143 223Q109 334 109 489Q109 648 143 758Q182 874 270 939T481 1004Q680 1004 760 872H762V899Q762 941 786 966T848
991T910 966T934 899V-287Q934 -329 910 -354ZM522 137Q604 137 659 177T739 291Q762 355 762 489Q762 626 739 690Q715 764 660 804T522 844Q442 844 387 804T307 690Q285 625 285 489Q285 356 307 291Q332 217 387 177T522 137Z" />
<glyph unicode="r" glyph-name="r" horiz-adv-x="833" d="M292 -10T254 -10T192 15T168 82V899Q168 941 192 966T254 991T316 966T340 899V854H342Q374 922 440 963T594 1004Q677 1004 739 969Q788 942 788 895Q788 858 764 834T702 809Q684 809 659 819Q599 844
547 844Q441 844 391 766T340 557V82Q340 40 316 15Z" />
<glyph unicode="s" glyph-name="s" horiz-adv-x="1003" d="M500 -23Q300 -23 143 86Q102 114 102 158Q102 190 125 213T182 236Q206 236 240 217Q385 131 514 131Q617 131 673 171T729 279Q729 343 689 374T537 418L434 428Q291 444 216 515T141 705Q141 845 236
924T504 1004Q670 1004 797 932Q848 904 848 860Q848 829 827 808T774 786Q750 786 713 803Q604 854 496 854Q406 854 358 818T309 719Q309 658 351 627T502 586L604 575Q899 543 899 297Q899 149 796 63T500 -23Z" />
<glyph unicode="t" glyph-name="t" horiz-adv-x="651" d="M483 -10H463Q313 -10 251 57T188 279V829Q188 842 176 842H121Q86 842 67 861T47 911T66 961T121 981H176Q188 981 188 993V1208Q188 1251 212 1275T274 1300T336 1276T360 1208V993Q360 981 373 981H502Q536
981 555 962T575 911T556 861T502 842H373Q360 842 360 829V285Q360 206 387 178T492 150Q531 150 553 128T575 70Q575 33 552 12T483 -10Z" />
<glyph unicode="u" glyph-name="u" horiz-adv-x="1103" d="M936 899V82Q936 40 912 15T850 -10T788 15T764 82V111H762Q724 50 656 14T492 -23Q334 -23 244 77T154 346V899Q154 941 178 966T240 991T302 966T326 899V387Q326 266 380 202T543 137Q643 137 703
202T764 377V899Q764 941 788 966T850 991T912 966T936 899Z" />
<glyph unicode="v" glyph-name="v" horiz-adv-x="980" d="M489 -10Q448 -10 424 13T377 96L80 866Q72 889 72 909Q72 944 95 967T156 991Q213 991 238 930L492 248H496L743 930Q768 991 825 991Q863 991 886 968T909 909Q909 889 901 866L602 96Q579 35 555 13T489 -10Z" />
<glyph unicode="w" glyph-name="w" horiz-adv-x="1525" d="M1073 -10Q995 -10 969 78L766 723H762L557 78Q529 -10 455 -10Q382 -10 352 78L92 872Q86 892 86 909Q86 945 109 968T170 991Q233 991 254 918L461 252H465L670 907Q695 991 764 991T858 907L1067 252H1071L1274
918Q1295 991 1358 991Q1394 991 1417 968T1440 909Q1440 892 1434 872L1174 78Q1144 -10 1073 -10Z" />
<glyph unicode="x" glyph-name="x" horiz-adv-x="980" d="M807 -10Q760 -10 731 33L492 373H489L250 33Q218 -10 174 -10Q141 -10 120 13T98 66T119 125L393 512L150 858Q129 889 129 915Q129 946 150 968T205 991Q251 991 281 950L489 649H492L702 950Q732 991
778 991Q810 991 831 969T852 915Q852 889 831 858L588 512L862 125Q883 96 883 66T861 13T807 -10Z" />
<glyph unicode="y" glyph-name="y" horiz-adv-x="976" d="M225 -369H209Q170 -369 148 -347T125 -289T147 -232T209 -209Q271 -209 309 -178T379 -61L412 29L78 870Q70 896 70 911Q70 945 94 968T156 991Q216 991 238 930L494 252H498L743 930Q765 991 823 991Q861
991 884 968T907 911Q907 896 899 870L530 -96Q467 -257 401 -313T225 -369Z" />
<glyph unicode="z" glyph-name="z" horiz-adv-x="927" d="M772 0H156Q117 0 96 21T74 78Q74 123 123 186L633 821V825H182Q143 825 122 846T100 903T121 959T182 981H772Q810 981 832 960T854 903Q854 855 807 795L297 160V156H772Q811 156 832 135T854 78T833 22T772 0Z" />
<glyph unicode="{" glyph-name="braceleft" horiz-adv-x="681" d="M541 -172H498Q383 -172 328 -116T272 57V430Q272 512 251 547T178 594Q111 611 111 676Q111 739 178 758Q229 770 250 805T272 922V1286Q272 1403 327 1459T498 1516H541Q577 1516 595 1497T614
1446T596 1395T541 1376H526Q478 1376 456 1352T434 1272V920Q434 808 404 755T307 678V674Q374 650 404 597T434 432V72Q434 16 456 -8T526 -33H541Q577 -33 595 -51T614 -102T596 -153T541 -172Z" />
<glyph unicode="|" glyph-name="bar" horiz-adv-x="593" d="M330 -182T297 -182T244 -160T223 -100V1444Q223 1482 243 1504T297 1526T350 1504T371 1444V-100Q371 -138 351 -160Z" />
<glyph unicode="}" glyph-name="braceright" horiz-adv-x="681" d="M184 -172H141Q105 -172 87 -153T68 -102T86 -52T141 -33H156Q204 -33 226 -9T248 72V432Q248 544 278 597T375 674V678Q308 702 278 755T248 920V1272Q248 1328 226 1352T156 1376H141Q105 1376
87 1395T68 1446T86 1497T141 1516H184Q299 1516 354 1460T410 1286V922Q410 840 431 805T504 758Q571 739 571 676Q571 611 504 594Q453 582 432 547T410 430V57Q410 -59 355 -115T184 -172Z" />
<glyph unicode="~" glyph-name="asciitilde" horiz-adv-x="1110" d="M975 571Q932 502 868 464T729 426Q637 426 522 502Q433 559 377 559Q337 559 307 542T248 483Q219 446 186 446Q159 446 140 464T121 510T135 559Q179 628 243 666T381 705Q473 705 588 629Q676
571 733 571Q773 571 803 588T862 647Q889 682 924 682Q952 682 970 665T989 621Q989 595 975 571Z" />
</font>
</defs>
</svg>
